<svg width="128" height="128" viewBox="0 0 128 128" fill="none" xmlns="http://www.w3.org/2000/svg">
  <defs>
    <linearGradient id="bg" x1="16" y1="16" x2="112" y2="112" gradientUnits="userSpaceOnUse">
      <stop stop-color="#5B7CFA"/>
      <stop offset="1" stop-color="#A855F7"/>
    </linearGradient>
    <linearGradient id="line" x1="40" y1="90" x2="88" y2="40" gradientUnits="userSpaceOnUse">
      <stop stop-color="#FFFFFF" stop-opacity="0.95"/>
      <stop offset="1" stop-color="#FFFFFF" stop-opacity="0.75"/>
    </linearGradient>
  </defs>

  <rect x="14" y="14" width="100" height="100" rx="26" fill="url(#bg)"/>
  <rect x="14.75" y="14.75" width="98.5" height="98.5" rx="25.25" stroke="white" stroke-opacity="0.25" stroke-width="1.5"/>

  <path d="M34 44C34 39.5817 37.5817 36 42 36H86C90.4183 36 94 39.5817 94 44V84C94 88.4183 90.4183 92 86 92H42C37.5817 92 34 88.4183 34 84V44Z"
        fill="white" fill-opacity="0.16" stroke="white" stroke-opacity="0.22"/>

  <path d="M40 78H52L58 64L66 86L74 54L80 62H88"
        stroke="url(#line)" stroke-width="6" stroke-linecap="round" stroke-linejoin="round"/>

  <circle cx="86" cy="46" r="10" stroke="white" stroke-opacity="0.75" stroke-width="3"/>
  <path d="M93.5 53.5L102 62" stroke="white" stroke-opacity="0.75" stroke-width="3" stroke-linecap="round"/>
</svg>